<?xml version="1.0" encoding="UTF-8" standalone="no"?>
<!-- Created with Inkscape (http://www.inkscape.org/) -->

<svg
   width="182mm"
   height="71mm"
   viewBox="0 0 182 71"
   version="1.1"
   id="svg5"
   inkscape:version="1.1.1 (3bf5ae0d25, 2021-09-20)"
   sodipodi:docname="wwccLOGO.svg"
   xmlns:inkscape="http://www.inkscape.org/namespaces/inkscape"
   xmlns:sodipodi="http://sodipodi.sourceforge.net/DTD/sodipodi-0.dtd"
   xmlns="http://www.w3.org/2000/svg"
   xmlns:svg="http://www.w3.org/2000/svg">
  <sodipodi:namedview
     id="namedview7"
     pagecolor="#ffffff"
     bordercolor="#666666"
     borderopacity="1.0"
     inkscape:pageshadow="2"
     inkscape:pageopacity="0.0"
     inkscape:pagecheckerboard="0"
     inkscape:document-units="mm"
     showgrid="false"
     inkscape:snap-text-baseline="true"
     inkscape:zoom="0.69664703"
     inkscape:cx="294.98439"
     inkscape:cy="164.3587"
     inkscape:window-width="1920"
     inkscape:window-height="932"
     inkscape:window-x="0"
     inkscape:window-y="0"
     inkscape:window-maximized="1"
     inkscape:current-layer="layer1" />
  <defs
     id="defs2">
    <rect
       x="68.335136"
       y="484.37369"
       width="713.76489"
       height="191.45837"
       id="rect5511" />
    <rect
       x="68.335136"
       y="484.37369"
       width="713.76489"
       height="191.45837"
       id="rect5511-6" />
  </defs>
  <g
     inkscape:label="Layer 1"
     inkscape:groupmode="layer"
     id="layer1">
    <text
       xml:space="preserve"
       transform="matrix(0.31790403,0,0,0.31790403,35.740195,-103.41281)"
       id="text5509"
       style="font-style:normal;font-variant:normal;font-weight:normal;font-stretch:normal;font-size:40px;line-height:1.25;font-family:Keraleeyam;-inkscape-font-specification:'Keraleeyam, Normal';font-variant-ligatures:normal;font-variant-caps:normal;font-variant-numeric:normal;font-variant-east-asian:normal;white-space:pre;shape-inside:url(#rect5511);fill:#d4aa00;fill-opacity:1;stroke:none"><tspan
         x="68.335938"
         y="514.8418"
         id="tspan78">World wide complaint center</tspan></text>
    <path
       style="fill:#d4aa00;fill-opacity:1;stroke-width:0.0263331"
       d="m 28.55547,60.508041 c -2.447811,-0.13328 -4.236557,-0.43332 -6.398963,-1.07332 -1.840647,-0.54479 -3.873698,-1.43416 -5.595805,-2.44794 -4.171787,-2.45588 -7.6048396,-6.0811 -9.8174129,-10.36697 -1.954572,-3.7861 -2.924222,-7.92496 -2.853339,-12.17911 0.0298,-1.78856 0.181366,-3.17901 0.53338,-4.89336 1.371865,-6.68109 5.5237323,-12.69179 11.3210479,-16.38961 4.150825,-2.6476 8.910936,-4.0358901 13.838097,-4.0358901 5.547614,0 10.83811,1.7468901 15.31275,5.0561701 5.019351,3.71214 8.565937,9.23788 9.836034,15.325 0.389026,1.86449 0.539078,3.34121 0.539182,5.30635 0,1.17731 -0.02217,1.66312 -0.120877,2.64555 -0.47645,4.74055 -2.288295,9.27717 -5.222091,13.07537 -1.058943,1.37096 -2.329701,2.70471 -3.659819,3.84129 -2.11485,1.80713 -4.559698,3.28805 -7.113067,4.3086 -2.533727,1.01271 -5.018525,1.57998 -7.847288,1.7915 -0.364258,0.0272 -2.420439,0.0544 -2.751829,0.0364 z m -0.249857,-15.41087 c -0.01661,-0.0166 -0.950367,0.0382 -1.514465,0.089 -1.535989,0.1382 -2.918787,0.36399 -4.502974,0.73526 -0.722026,0.1692 -2.064571,0.54589 -2.116209,0.59374 -0.05077,0.0471 0.748118,1.75814 1.272274,2.7248 1.699605,3.13447 3.916016,5.93115 6.52313,8.23094 l 0.337942,0.2981 0.0064,-6.32943 c 0.004,-3.48118 7.94e-4,-6.33526 -0.0064,-6.34239 z m 3.04808,12.23439 c 0.57817,-0.51428 1.650796,-1.58235 2.189087,-2.1798 1.947651,-2.1617 3.529312,-4.50815 4.783684,-7.09679 0.371275,-0.7662 0.694788,-1.5136 0.66651,-1.53982 -0.05164,-0.0479 -1.394184,-0.42453 -2.11621,-0.59374 -1.592744,-0.37327 -2.995747,-0.60179 -4.51614,-0.73562 -0.512849,-0.0452 -1.236503,-0.0933 -1.401796,-0.0933 h -0.112366 v 6.33314 c 0,3.48322 0.0064,6.33313 0.01351,6.33313 0.0071,0 0.229596,-0.19224 0.493748,-0.42719 z m -7.160711,-0.0292 c -0.05554,-0.0627 -0.219855,-0.24343 -0.365132,-0.40157 -2.412334,-2.62593 -4.454848,-5.81195 -5.909911,-9.21861 l -0.136736,-0.32012 -0.267918,0.1129 c -1.733684,0.7305 -3.435769,1.62545 -4.886764,2.56945 l -0.352873,0.22957 0.31738,0.33881 c 0.614521,0.65603 1.366279,1.37524 1.99469,1.90834 2.539988,2.15477 5.567749,3.76468 8.729449,4.64162 0.433489,0.12023 0.915159,0.24672 0.956818,0.25127 0.01208,0.002 -0.02344,-0.0489 -0.07898,-0.11166 z m 11.235457,-0.0272 c 3.538139,-0.90705 6.875239,-2.70317 9.664282,-5.20157 0.343894,-0.30807 1.098346,-1.05215 1.481189,-1.46085 l 0.317379,-0.33881 -0.352873,-0.22958 c -1.44784,-0.94194 -3.156408,-1.84033 -4.885841,-2.56907 l -0.267004,-0.1125 -0.231337,0.5304 c -1.442723,3.30779 -3.364225,6.29869 -5.701751,8.87499 -0.571544,0.62992 -0.594205,0.65699 -0.535852,0.63998 0.02805,-0.008 0.258351,-0.068 0.511808,-0.13299 z M 11.0336,48.091631 c 1.552327,-1.03614 3.844341,-2.24944 5.566607,-2.94673 0.152071,-0.0616 0.28493,-0.11942 0.295236,-0.12857 0.01033,-0.009 -0.05252,-0.24756 -0.139621,-0.52982 -0.80539,-2.60989 -1.287387,-5.44631 -1.40058,-8.24199 l -0.0056,-0.14483 -4.470256,-0.006 -4.4702469,-0.006 0.0151,0.19099 c 0.153564,1.93918 0.379824,3.25351 0.844316,4.90464 0.608927,2.16457 1.5987753,4.34222 2.8481829,6.26597 0.364696,0.56153 0.585043,0.8602 0.619575,0.83982 0.01724,-0.0102 0.151117,-0.0984 0.297523,-0.19616 z m 37.861587,-0.4185 c 1.612085,-2.4209 2.738843,-5.07476 3.358712,-7.91081 0.201413,-0.9215 0.378433,-2.11924 0.447909,-3.03063 0.01549,-0.20277 0.03401,-0.43092 0.04123,-0.50699 l 0.01311,-0.13833 -4.470295,0.006 -4.470302,0.006 -0.01835,0.40816 c -0.118317,2.63585 -0.608069,5.44903 -1.388948,7.97827 -0.08707,0.28203 -0.14971,0.52044 -0.13919,0.52981 0.01049,0.009 0.143561,0.0674 0.295632,0.12897 1.737132,0.70331 4.031331,1.91945 5.587947,2.96213 l 0.297523,0.1993 0.0603,-0.073 c 0.03313,-0.0401 0.206268,-0.29224 0.384695,-0.56019 z m -29.266662,-3.62196 c 1.820441,-0.55995 3.783508,-0.98213 5.674801,-1.22046 0.975632,-0.12294 2.35723,-0.23972 2.8374,-0.23983 h 0.177751 v -3.25216 -3.25215 H 23.09134 17.864194 l 5.6e-5,0.20408 c 5.6e-5,0.23987 0.06293,1.11712 0.120289,1.67875 0.142282,1.39265 0.372697,2.73765 0.694708,4.05531 0.254196,1.04013 0.568643,2.11987 0.617318,2.11974 0.01605,0 0.165404,-0.0419 0.331968,-0.0932 z m 20.390163,-0.30826 c 0.723161,-2.3965 1.178731,-4.98817 1.27295,-7.24164 l 0.01732,-0.41475 h -5.231253 -5.23126 v 3.25217 3.25214 h 0.17775 c 0.783835,2.6e-4 2.792643,0.20752 4.089652,0.42208 1.479838,0.24483 3.299136,0.67583 4.54105,1.07584 0.0869,0.0279 0.177037,0.052 0.200301,0.0533 0.03219,0.002 0.07119,-0.0933 0.163473,-0.39918 z M 15.372849,33.235961 c 0.138229,-2.50964 0.557726,-4.99623 1.240564,-7.35356 0.09885,-0.34124 0.324014,-1.05739 0.373364,-1.18751 0.0064,-0.0163 -0.14763,-0.0948 -0.352395,-0.17992 -1.989319,-0.82699 -4.077377,-1.93797 -5.734769,-3.05123 -0.174159,-0.11698 -0.186102,-0.12104 -0.228174,-0.0775 -0.07978,0.0825 -0.6906076,1.01041 -0.9489276,1.44156 -1.3722153,2.29026 -2.2859843,4.60152 -2.8370123,7.17579 -0.188255,0.8795 -0.357687,2.04577 -0.422722,2.90982 -0.01526,0.20277 -0.03361,0.43087 -0.04084,0.50691 l -0.01311,0.13826 h 4.4731399 4.473148 z m 12.945628,-2.92957 v -3.25216 l -0.177751,-5e-5 c -0.479144,-10e-5 -1.859113,-0.11667 -2.8374,-0.23965 -1.848538,-0.23236 -4.006112,-0.69675 -5.682746,-1.22312 -0.112995,-0.0354 -0.221635,-0.0645 -0.24142,-0.0645 -0.04077,0 -0.100663,0.17133 -0.317602,0.90849 -0.543749,1.84769 -0.902978,3.70811 -1.090677,5.64847 -0.0491,0.50762 -0.106687,1.26916 -0.106687,1.41093 v 0.0637 h 5.227146 5.227137 z m 12.982266,3.18841 c 0,-0.16188 -0.06007,-0.93135 -0.118667,-1.52016 -0.203011,-2.03971 -0.587792,-3.94636 -1.195576,-5.92417 -0.08431,-0.27439 -0.160405,-0.50599 -0.169082,-0.51467 -0.01828,-0.0183 -0.02328,-0.017 -0.820829,0.21399 -2.085055,0.60391 -4.189544,1.0008 -6.3463,1.19686 -0.674129,0.0613 -1.372635,0.10747 -1.626076,0.10754 l -0.177751,4e-5 v 3.25216 3.25215 h 5.227144 5.227137 z m 11.442215,-0.10084 c -0.07326,-0.84944 -0.103904,-1.15465 -0.159373,-1.58658 -0.406473,-3.16501 -1.477231,-6.2263 -3.140811,-8.97962 -0.230263,-0.3811 -0.827185,-1.28739 -0.932671,-1.41605 l -0.05991,-0.0731 -0.18433,0.12427 c -1.630606,1.09932 -3.746298,2.22518 -5.735314,3.05207 -0.259552,0.1079 -0.35938,0.16136 -0.34948,0.18716 0.0079,0.0198 0.07882,0.24025 0.158228,0.4897 0.785797,2.46883 1.276805,5.14083 1.439466,7.83345 l 0.03218,0.53324 h 4.473083 4.473083 z M 28.318477,18.335341 v -6.21724 l -0.163203,0.14086 c -0.73032,0.6303 -1.918555,1.80041 -2.603251,2.56351 -1.948382,2.17152 -3.555349,4.58109 -4.802603,7.20129 -0.229041,0.48115 -0.476546,1.03465 -0.493367,1.10331 -0.02145,0.0875 1.904149,0.59542 3.300311,0.87048 1.47848,0.2913 3.452319,0.52934 4.571196,0.55129 l 0.190917,0.004 z m 3.333209,6.17827 c 1.452353,-0.0999 2.613405,-0.25136 3.956888,-0.51606 1.39729,-0.27529 3.321121,-0.7828 3.300725,-0.87072 -0.02217,-0.0956 -0.443333,-1.00489 -0.746831,-1.61243 -1.219001,-2.44026 -2.726775,-4.66092 -4.526423,-6.66657 -0.705022,-0.78573 -1.886303,-1.95014 -2.626372,-2.58887 l -0.163211,-0.14086 v 6.21724 6.21724 l 0.125088,-3.8e-4 c 0.06881,-2.1e-4 0.374857,-0.0176 0.680136,-0.0386 z m -13.671247,-2.44353 c 0.189916,-0.44771 0.597589,-1.31764 0.872793,-1.86247 1.395185,-2.76206 3.192934,-5.32218 5.353322,-7.62347 0.203947,-0.21724 0.35582,-0.39836 0.337489,-0.40249 -0.05189,-0.0117 -1.151629,0.27 -1.670445,0.42785 -1.339097,0.40744 -2.455328,0.85469 -3.719076,1.49014 -1.771259,0.89066 -3.286709,1.91117 -4.863372,3.27507 -0.35988,0.31132 -2.009588,1.94044 -2.009588,1.98451 0,0.0243 0.699253,0.47431 1.237656,0.79647 1.163992,0.69649 2.507309,1.37898 3.80408,1.93271 0.463959,0.19812 0.518649,0.22068 0.540896,0.22318 0.0071,7.9e-4 0.05959,-0.10786 0.116245,-0.2415 z m 23.871317,0.0143 c 1.314537,-0.56212 2.657774,-1.2471 3.846627,-1.96158 0.534223,-0.32106 1.184857,-0.73892 1.184936,-0.76101 2.63e-4,-0.0404 -1.410909,-1.45059 -1.783875,-1.78286 -1.626355,-1.44885 -3.225838,-2.54238 -5.089027,-3.47925 -1.263741,-0.63545 -2.37998,-1.0827 -3.719069,-1.49014 -0.520509,-0.15837 -1.618433,-0.43947 -1.671113,-0.42785 -0.01867,0.004 0.127289,0.17932 0.324404,0.38933 2.457854,2.61854 4.41655,5.51923 5.893822,8.72832 0.133637,0.29029 0.289346,0.63699 0.346038,0.77046 0.08944,0.21057 0.110039,0.24055 0.155742,0.22673 0.029,-0.009 0.259147,-0.10423 0.511515,-0.21215 z M 28.318477,11.675701 c 0,-0.0145 -0.01255,-0.0263 -0.02789,-0.0263 -0.01534,0 -0.02058,0.0118 -0.0116,0.0263 0.009,0.0144 0.02153,0.0263 0.02789,0.0263 0.0064,0 0.0116,-0.0118 0.0116,-0.0263 z m 2.56749,0 c 0.009,-0.0145 0.004,-0.0263 -0.0116,-0.0263 -0.01533,0 -0.02788,0.0118 -0.02788,0.0263 0,0.0144 0.0056,0.0263 0.0116,0.0263 0.0064,0 0.01891,-0.0118 0.02788,-0.0263 z"
       id="path31529" />
    <text
       xml:space="preserve"
       transform="matrix(1.4712413,0,0,1.4712413,-46.414338,-707.42932)"
       id="text5509-9"
       style="font-style:normal;font-variant:normal;font-weight:normal;font-stretch:normal;font-size:40px;line-height:1.25;font-family:Keraleeyam;-inkscape-font-specification:'Keraleeyam, Normal';font-variant-ligatures:normal;font-variant-caps:normal;font-variant-numeric:normal;font-variant-east-asian:normal;white-space:pre;shape-inside:url(#rect5511-6);fill:#f9f9f9;fill-opacity:1;stroke:none"><tspan
         x="68.335938"
         y="514.8418"
         id="tspan80">WWCC</tspan></text>
  </g>
</svg>
